<svg
  xmlns="http://www.w3.org/2000/svg"
  width="24"
  height="24"
  viewBox="0 0 24 24"
  fill="none"
  stroke="currentColor"
  strokeWidth="2"
  strokeLinecap="round"
  strokeLinejoin="round"
>
  <path d="M13 10a1 1 0 0 0-1-1H6a1 1 0 0 0-1 1v1a1 1 0 0 0 1 1h2.5a1 1 0 0 1 1 1v2.5a1 1 0 0 1-1 1H6a1 1 0 0 1-1-1v-1a1 1 0 0 1 1-1" />
  <path d="M14.23 19.32c.34-.34.83-.53 1.34-.53.5 0 .99.19 1.34.53l.53.53c.34.34.53.83.53 1.34 0 .5-.19.99-.53 1.34l-2.12 2.12c-.34.34-.83.53-1.34.53-.5 0-.99-.19-1.34-.53l-5.66-5.66c-.34-.34-.53-.83-.53-1.34 0-.5.19-.99.53-1.34l.53-.53c.34-.34.83-.53 1.34-.53.5 0 .99.19 1.34.53l2.12 2.12" />
  <path d="M18 2a1 1 0 0 0-1 1v1a1 1 0 0 0 1 1h2a1 1 0 0 0 1-1v-1a1 1 0 0 0-1-1h-2Z" />
  <path d="M22 6a1 1 0 0 0-1 1v2a1 1 0 0 0 1 1h1a1 1 0 0 0 1-1V7a1 1 0 0 0-1-1h-1Z" />
  <path d="m2.29 13.71.53.53c.34.34.83.53 1.34.53.5 0 .99-.19 1.34-.53l2.12-2.12c.34-.34.53-.83.53-1.34 0-.5-.19-.99-.53-1.34l-.53-.53c-.34-.34-.83-.53-1.34-.53-.5 0-.99.19-1.34-.53L2.29 7.15c-.34-.34-.53-.83-.53-1.34 0-.5.19-.99.53-1.34l2.12-2.12c.34-.34.83-.53 1.34-.53.5 0 .99.19 1.34.53l5.66 5.66c.34.34.53.83.53 1.34 0 .5-.19.99-.53-1.34l-.53.53c-.34.34-.83.53-1.34.53-.5 0-.99-.19-1.34-.53L8.83 9.17" />
</svg>
